<?xml version="1.0" encoding="utf-8"?>
<!-- Generator: Adobe Illustrator 19.2.1, SVG Export Plug-In . SVG Version: 6.00 Build 0)  -->
<svg version="1.1" id="Layer_1" xmlns="http://www.w3.org/2000/svg" xmlns:xlink="http://www.w3.org/1999/xlink" x="0px" y="0px"
	 viewBox="0 0 728 103" style="enable-background:new 0 0 728 103;" xml:space="preserve">
<style type="text/css">
	.st0{fill:#427ABE;}
	.st1{fill:#221F1F;}
</style>
<g>
	<path class="st0" d="M0,56.9V1.4h28.2v53.8c0,12.8,7.9,21.9,19.3,21.9S66.9,68,66.9,55.2V1.4h28.2v55.2c0,27-19.6,45.9-47.3,45.9
		S0,83.7,0,56.9z"/>
	<path class="st0" d="M103.5,86l15.6-18.6c10,7.9,21.2,12.1,32.9,12.1c7.7,0,11.7-2.6,11.7-7c0-4.9-3.5-5.6-17.2-8.6
		c-21.7-4.9-38.2-10.5-38.2-31.2c0-19.8,15.6-32.6,39.1-32.6C164.5,0,178,4.7,189,13.5l-14,19.8c-9.3-6.8-19.3-10-28.4-10
		c-6.8,0-10,2.8-10,6.5c0,5.1,3.5,6.8,17.7,9.8c23.1,4.9,37.8,11.2,37.8,30.1c0,21-16.1,33.3-41,33.3
		C133.1,102.8,116.1,96.9,103.5,86z"/>
	<path class="st0" d="M232.6,26.6v11.2h47.3v24.9h-47.3V76h52v24.9h-79.9V1.4h80.2v24.9h-52.2V26.6z"/>
	<path class="st0" d="M356.5,100.9l-21-30.1h-8.6v30.1h-28.2V1.4h47.5c22.4,0,38,14.4,38,34.7c0,14.2-7.5,25.4-19.6,31l23.8,33.8
		H356.5z M326.9,45.4h17.2c6.8,0,11.4-4,11.4-9.3s-4.9-9.3-11.4-9.3h-17.2V45.4z"/>
</g>
<path class="st1" d="M390.8,1.4h23.1L432.3,68l22.1-66.6h23.1L499.4,68l18.4-66.6h23.1l-30.1,99.5h-21.4l-23.3-68.3l-23.5,68.3
	h-21.7L390.8,1.4z"/>
<path class="st1" d="M610.1,85.3h-44.3l-6.3,15.6h-24l40.5-99.5h24l40.5,99.5h-24L610.1,85.3z M602.6,67.1l-14.7-36.4l-14.7,36.4
	H602.6z"/>
<path class="st1" d="M667.4,65L628.5,1.4h24.9L678.1,45L704,1.4h24L689.1,65v35.9h-21.7L667.4,65L667.4,65z"/>
</svg>
