<svg width="14" height="14" viewBox="0 0 14 14" fill="none" xmlns="http://www.w3.org/2000/svg">
	<path fill-rule="evenodd" clip-rule="evenodd" d="M2.03125 2.0625C3.40626 0.687493 5.06249 0 7 0C8.93751 0 10.5885 0.682285 11.9531 2.04688C13.3177 3.41147 14 5.06249 14 7C14 8.93751 13.3177 10.5885 11.9531 11.9531C10.5885 13.3177 8.93751 14 7 14C5.06249 14 3.41147 13.3177 2.04688 11.9531C0.682285 10.5885 0 8.93751 0 7C0 5.06249 0.677077 3.41667 2.03125 2.0625ZM10.5938 4.65625C10.6146 4.63542 10.625 4.60417 10.625 4.5625C10.625 4.5 10.6146 4.45833 10.5938 4.4375L9.625 3.6875C9.60417 3.66667 9.5625 3.65625 9.5 3.65625C9.45833 3.65625 9.42708 3.66667 9.40625 3.6875L5.9375 8.15625C5.02083 7.28125 4.55208 6.83333 4.53125 6.8125C4.46875 6.75 4.40625 6.71875 4.34375 6.71875C4.32292 6.71875 4.28125 6.75 4.21875 6.8125L3.40625 7.625C3.38542 7.64583 3.375 7.6875 3.375 7.75C3.375 7.79167 3.38542 7.82292 3.40625 7.84375L3.46875 7.875C5.09376 9.43751 5.91667 10.2292 5.9375 10.25C6 10.3125 6.05208 10.3438 6.09375 10.3438C6.13542 10.3438 6.1875 10.3125 6.25 10.25L10.5938 4.65625Z" fill="#006DD5" />
</svg>
